<mxfile host="Electron" modified="2023-04-14T14:28:26.825Z" agent="Mozilla/5.0 (Windows NT 10.0; Win64; x64) AppleWebKit/537.36 (KHTML, like Gecko) draw.io/21.1.2 Chrome/106.0.5249.199 Electron/21.4.3 Safari/537.36" etag="fYFDcpOzXwQNE0ArFjiC" version="21.1.2" type="device">
  <diagram name="Seite-1" id="jReuW4hs5iXOivOyITMv">
    <mxGraphModel dx="1706" dy="1151" grid="1" gridSize="10" guides="1" tooltips="1" connect="1" arrows="1" fold="1" page="1" pageScale="1" pageWidth="827" pageHeight="1169" math="0" shadow="0">
      <root>
        <mxCell id="0" />
        <mxCell id="1" parent="0" />
        <mxCell id="lQBdFnIr-U1xRK9sxXeZ-17" value="" style="rounded=0;whiteSpace=wrap;html=1;fillColor=#f5f5f5;fontColor=#333333;strokeColor=#666666;" vertex="1" parent="1">
          <mxGeometry x="480" y="360" width="600" height="160" as="geometry" />
        </mxCell>
        <mxCell id="lQBdFnIr-U1xRK9sxXeZ-42" value="" style="group;fillColor=#e1d5e7;strokeColor=#9673a6;" vertex="1" connectable="0" parent="1">
          <mxGeometry x="40" y="160" width="1480" height="140" as="geometry" />
        </mxCell>
        <mxCell id="lQBdFnIr-U1xRK9sxXeZ-7" value="" style="rounded=1;whiteSpace=wrap;html=1;fillColor=#ffe6cc;strokeColor=#d79b00;" vertex="1" parent="lQBdFnIr-U1xRK9sxXeZ-42">
          <mxGeometry width="1480" height="140" as="geometry" />
        </mxCell>
        <mxCell id="lQBdFnIr-U1xRK9sxXeZ-18" value="&lt;font style=&quot;font-size: 24px;&quot;&gt;policy.created&lt;/font&gt;" style="rounded=0;whiteSpace=wrap;html=1;fillColor=#e1d5e7;strokeColor=#9673a6;" vertex="1" parent="lQBdFnIr-U1xRK9sxXeZ-42">
          <mxGeometry x="259" y="40" width="231" height="61.82" as="geometry" />
        </mxCell>
        <mxCell id="lQBdFnIr-U1xRK9sxXeZ-19" value="&lt;font style=&quot;font-size: 24px;&quot;&gt;customer.created&lt;/font&gt;" style="rounded=0;whiteSpace=wrap;html=1;fillColor=#e1d5e7;strokeColor=#9673a6;" vertex="1" parent="lQBdFnIr-U1xRK9sxXeZ-42">
          <mxGeometry x="931" y="40" width="229" height="61.82" as="geometry" />
        </mxCell>
        <mxCell id="lQBdFnIr-U1xRK9sxXeZ-30" value="&lt;font style=&quot;font-size: 24px;&quot;&gt;Topic-Exchange&lt;/font&gt;" style="text;html=1;strokeColor=none;fillColor=none;align=center;verticalAlign=middle;whiteSpace=wrap;rounded=0;fontStyle=1" vertex="1" parent="lQBdFnIr-U1xRK9sxXeZ-42">
          <mxGeometry x="635" y="12.727272727272727" width="210" height="25.454545454545453" as="geometry" />
        </mxCell>
        <mxCell id="lQBdFnIr-U1xRK9sxXeZ-38" style="edgeStyle=orthogonalEdgeStyle;orthogonalLoop=1;jettySize=auto;html=1;exitX=0.5;exitY=0;exitDx=0;exitDy=0;entryX=1;entryY=0.5;entryDx=0;entryDy=0;curved=1;strokeWidth=2;dashed=1;" edge="1" parent="1" source="lQBdFnIr-U1xRK9sxXeZ-28" target="lQBdFnIr-U1xRK9sxXeZ-19">
          <mxGeometry relative="1" as="geometry" />
        </mxCell>
        <mxCell id="lQBdFnIr-U1xRK9sxXeZ-28" value="&lt;span style=&quot;font-size: 24px;&quot;&gt;&lt;b&gt;Customer-Service&lt;/b&gt;&lt;/span&gt;" style="rounded=0;whiteSpace=wrap;html=1;fillColor=#f5f5f5;fontColor=#333333;strokeColor=#666666;" vertex="1" parent="1">
          <mxGeometry x="1160" y="360" width="360" height="160" as="geometry" />
        </mxCell>
        <mxCell id="lQBdFnIr-U1xRK9sxXeZ-27" value="" style="group;fillColor=#f5f5f5;fontColor=#333333;strokeColor=#666666;" vertex="1" connectable="0" parent="1">
          <mxGeometry x="40" y="360" width="360" height="160" as="geometry" />
        </mxCell>
        <mxCell id="lQBdFnIr-U1xRK9sxXeZ-21" value="&lt;p style=&quot;line-height: 120%;&quot;&gt;&lt;br&gt;&lt;/p&gt;" style="rounded=0;whiteSpace=wrap;html=1;fillColor=#f5f5f5;fontColor=#333333;strokeColor=#666666;" vertex="1" parent="lQBdFnIr-U1xRK9sxXeZ-27">
          <mxGeometry width="360" height="160" as="geometry" />
        </mxCell>
        <mxCell id="lQBdFnIr-U1xRK9sxXeZ-25" value="&lt;font style=&quot;font-size: 24px;&quot;&gt;Policy-Service&lt;/font&gt;" style="text;html=1;strokeColor=none;fillColor=none;align=center;verticalAlign=middle;whiteSpace=wrap;rounded=0;fontStyle=1" vertex="1" parent="lQBdFnIr-U1xRK9sxXeZ-27">
          <mxGeometry x="75" y="105" width="210" height="30.476190476190474" as="geometry" />
        </mxCell>
        <mxCell id="lQBdFnIr-U1xRK9sxXeZ-29" value="&lt;div style=&quot;&quot;&gt;&lt;span style=&quot;background-color: initial;&quot;&gt;customer.receive&lt;/span&gt;&lt;/div&gt;" style="shape=process;whiteSpace=wrap;html=1;backgroundOutline=1;fontSize=24;size=0.3333333333333333;align=center;fillColor=#fff2cc;strokeColor=#d6b656;" vertex="1" parent="lQBdFnIr-U1xRK9sxXeZ-27">
          <mxGeometry x="80" y="20" width="200" height="60" as="geometry" />
        </mxCell>
        <mxCell id="lQBdFnIr-U1xRK9sxXeZ-39" style="edgeStyle=orthogonalEdgeStyle;rounded=0;orthogonalLoop=1;jettySize=auto;html=1;exitX=1;exitY=0.5;exitDx=0;exitDy=0;entryX=0.5;entryY=0;entryDx=0;entryDy=0;strokeWidth=2;" edge="1" parent="1" source="lQBdFnIr-U1xRK9sxXeZ-18" target="lQBdFnIr-U1xRK9sxXeZ-12">
          <mxGeometry relative="1" as="geometry" />
        </mxCell>
        <mxCell id="lQBdFnIr-U1xRK9sxXeZ-40" style="edgeStyle=orthogonalEdgeStyle;rounded=0;orthogonalLoop=1;jettySize=auto;html=1;exitX=0;exitY=0.5;exitDx=0;exitDy=0;entryX=0.5;entryY=0;entryDx=0;entryDy=0;strokeWidth=2;" edge="1" parent="1" source="lQBdFnIr-U1xRK9sxXeZ-19" target="lQBdFnIr-U1xRK9sxXeZ-13">
          <mxGeometry relative="1" as="geometry" />
        </mxCell>
        <mxCell id="lQBdFnIr-U1xRK9sxXeZ-41" style="edgeStyle=orthogonalEdgeStyle;rounded=0;orthogonalLoop=1;jettySize=auto;html=1;exitX=0.5;exitY=1;exitDx=0;exitDy=0;entryX=0.5;entryY=0;entryDx=0;entryDy=0;strokeWidth=2;" edge="1" parent="1" source="lQBdFnIr-U1xRK9sxXeZ-19" target="lQBdFnIr-U1xRK9sxXeZ-29">
          <mxGeometry relative="1" as="geometry" />
        </mxCell>
        <mxCell id="lQBdFnIr-U1xRK9sxXeZ-37" style="edgeStyle=orthogonalEdgeStyle;orthogonalLoop=1;jettySize=auto;html=1;exitX=0.25;exitY=0;exitDx=0;exitDy=0;entryX=0;entryY=0.5;entryDx=0;entryDy=0;curved=1;strokeWidth=2;dashed=1;" edge="1" parent="1" source="lQBdFnIr-U1xRK9sxXeZ-21" target="lQBdFnIr-U1xRK9sxXeZ-18">
          <mxGeometry relative="1" as="geometry" />
        </mxCell>
        <mxCell id="lQBdFnIr-U1xRK9sxXeZ-12" value="policy.receive" style="shape=process;whiteSpace=wrap;html=1;backgroundOutline=1;fontSize=24;size=0.3333333333333333;fillColor=#fff2cc;strokeColor=#d6b656;" vertex="1" parent="1">
          <mxGeometry x="530" y="380" width="200" height="60.000000000000014" as="geometry" />
        </mxCell>
        <mxCell id="lQBdFnIr-U1xRK9sxXeZ-13" value="&lt;div style=&quot;&quot;&gt;&lt;span style=&quot;background-color: initial;&quot;&gt;customer.receive&lt;/span&gt;&lt;/div&gt;" style="shape=process;whiteSpace=wrap;html=1;backgroundOutline=1;fontSize=24;size=0.3333333333333333;align=center;fillColor=#fff2cc;strokeColor=#d6b656;" vertex="1" parent="1">
          <mxGeometry x="820" y="380" width="200" height="60.000000000000014" as="geometry" />
        </mxCell>
        <mxCell id="lQBdFnIr-U1xRK9sxXeZ-23" value="&lt;font style=&quot;font-size: 24px;&quot;&gt;Notification-Service&lt;/font&gt;" style="text;html=1;strokeColor=none;fillColor=none;align=center;verticalAlign=middle;whiteSpace=wrap;rounded=0;fontStyle=1" vertex="1" parent="1">
          <mxGeometry x="647.5" y="460" width="265" height="40" as="geometry" />
        </mxCell>
        <mxCell id="lQBdFnIr-U1xRK9sxXeZ-53" value="" style="group" vertex="1" connectable="0" parent="1">
          <mxGeometry x="960" y="565" width="360" height="130" as="geometry" />
        </mxCell>
        <mxCell id="lQBdFnIr-U1xRK9sxXeZ-46" value="" style="endArrow=classic;html=1;rounded=0;strokeWidth=2;" edge="1" parent="lQBdFnIr-U1xRK9sxXeZ-53">
          <mxGeometry width="50" height="50" relative="1" as="geometry">
            <mxPoint y="25.239058575488215" as="sourcePoint" />
            <mxPoint x="120" y="25" as="targetPoint" />
          </mxGeometry>
        </mxCell>
        <mxCell id="lQBdFnIr-U1xRK9sxXeZ-48" value="" style="endArrow=classic;html=1;rounded=0;dashed=1;strokeWidth=2;" edge="1" parent="lQBdFnIr-U1xRK9sxXeZ-53">
          <mxGeometry width="50" height="50" relative="1" as="geometry">
            <mxPoint y="99.99876065633876" as="sourcePoint" />
            <mxPoint x="120" y="101" as="targetPoint" />
          </mxGeometry>
        </mxCell>
        <mxCell id="lQBdFnIr-U1xRK9sxXeZ-51" value="&lt;font style=&quot;font-size: 24px;&quot;&gt;Senden&lt;/font&gt;" style="text;html=1;strokeColor=none;fillColor=none;align=center;verticalAlign=middle;whiteSpace=wrap;rounded=0;" vertex="1" parent="lQBdFnIr-U1xRK9sxXeZ-53">
          <mxGeometry x="121" y="84.99970208085068" width="160" height="35.75029791914931" as="geometry" />
        </mxCell>
        <mxCell id="lQBdFnIr-U1xRK9sxXeZ-52" value="&lt;font style=&quot;font-size: 24px;&quot;&gt;Empfangen&lt;/font&gt;" style="text;html=1;strokeColor=none;fillColor=none;align=center;verticalAlign=middle;whiteSpace=wrap;rounded=0;" vertex="1" parent="lQBdFnIr-U1xRK9sxXeZ-53">
          <mxGeometry x="140" y="6.62" width="160" height="35.75029791914931" as="geometry" />
        </mxCell>
        <mxCell id="lQBdFnIr-U1xRK9sxXeZ-54" value="" style="group" vertex="1" connectable="0" parent="1">
          <mxGeometry x="240" y="560" width="320" height="140" as="geometry" />
        </mxCell>
        <mxCell id="lQBdFnIr-U1xRK9sxXeZ-43" value="" style="rounded=0;whiteSpace=wrap;html=1;fillColor=#e1d5e7;strokeColor=#9673a6;" vertex="1" parent="lQBdFnIr-U1xRK9sxXeZ-54">
          <mxGeometry width="120" height="61.82" as="geometry" />
        </mxCell>
        <mxCell id="lQBdFnIr-U1xRK9sxXeZ-44" value="&lt;div style=&quot;&quot;&gt;&lt;br&gt;&lt;/div&gt;" style="shape=process;whiteSpace=wrap;html=1;backgroundOutline=1;fontSize=24;size=0.3333333333333333;align=center;fillColor=#fff2cc;strokeColor=#d6b656;" vertex="1" parent="lQBdFnIr-U1xRK9sxXeZ-54">
          <mxGeometry y="80" width="120" height="60" as="geometry" />
        </mxCell>
        <mxCell id="lQBdFnIr-U1xRK9sxXeZ-49" value="&lt;font style=&quot;font-size: 24px;&quot;&gt;Routing-Key&lt;/font&gt;" style="text;html=1;strokeColor=none;fillColor=none;align=center;verticalAlign=middle;whiteSpace=wrap;rounded=0;" vertex="1" parent="lQBdFnIr-U1xRK9sxXeZ-54">
          <mxGeometry x="160" y="15.91" width="140" height="30" as="geometry" />
        </mxCell>
        <mxCell id="lQBdFnIr-U1xRK9sxXeZ-50" value="&lt;font style=&quot;font-size: 24px;&quot;&gt;Queue&lt;/font&gt;" style="text;html=1;strokeColor=none;fillColor=none;align=center;verticalAlign=middle;whiteSpace=wrap;rounded=0;" vertex="1" parent="lQBdFnIr-U1xRK9sxXeZ-54">
          <mxGeometry x="160" y="95" width="70" height="30" as="geometry" />
        </mxCell>
        <mxCell id="lQBdFnIr-U1xRK9sxXeZ-62" value="" style="group" vertex="1" connectable="0" parent="1">
          <mxGeometry x="640" y="560" width="280" height="141.82000000000005" as="geometry" />
        </mxCell>
        <mxCell id="lQBdFnIr-U1xRK9sxXeZ-59" value="" style="group" vertex="1" connectable="0" parent="lQBdFnIr-U1xRK9sxXeZ-62">
          <mxGeometry width="270" height="61.82000000000005" as="geometry" />
        </mxCell>
        <mxCell id="lQBdFnIr-U1xRK9sxXeZ-57" value="" style="rounded=0;whiteSpace=wrap;html=1;fillColor=#f5f5f5;strokeColor=#666666;fontColor=#333333;" vertex="1" parent="lQBdFnIr-U1xRK9sxXeZ-59">
          <mxGeometry width="120" height="61.82" as="geometry" />
        </mxCell>
        <mxCell id="lQBdFnIr-U1xRK9sxXeZ-58" value="&lt;font style=&quot;font-size: 24px;&quot;&gt;Service&lt;/font&gt;" style="text;html=1;strokeColor=none;fillColor=none;align=center;verticalAlign=middle;whiteSpace=wrap;rounded=0;" vertex="1" parent="lQBdFnIr-U1xRK9sxXeZ-59">
          <mxGeometry x="130" y="15.909999999999968" width="140" height="30" as="geometry" />
        </mxCell>
        <mxCell id="lQBdFnIr-U1xRK9sxXeZ-60" value="" style="rounded=0;whiteSpace=wrap;html=1;fillColor=#ffe6cc;strokeColor=#d79b00;" vertex="1" parent="lQBdFnIr-U1xRK9sxXeZ-62">
          <mxGeometry y="80" width="120" height="61.82" as="geometry" />
        </mxCell>
        <mxCell id="lQBdFnIr-U1xRK9sxXeZ-61" value="&lt;font style=&quot;font-size: 24px;&quot;&gt;Exchange&lt;/font&gt;" style="text;html=1;strokeColor=none;fillColor=none;align=center;verticalAlign=middle;whiteSpace=wrap;rounded=0;" vertex="1" parent="lQBdFnIr-U1xRK9sxXeZ-62">
          <mxGeometry x="150" y="95.91" width="130" height="30" as="geometry" />
        </mxCell>
      </root>
    </mxGraphModel>
  </diagram>
</mxfile>
